<mxfile host="app.diagrams.net" modified="2023-05-15T23:06:12.364Z" agent="Mozilla/5.0 (Windows NT 10.0; Win64; x64) AppleWebKit/537.36 (KHTML, like Gecko) Chrome/113.0.0.0 Safari/537.36" etag="5azTr_NtgRlfhzBXs08M" version="21.3.0" type="github">
  <diagram name="Page-1" id="1j5nJpLJhjSEaKDnFYxo">
    <mxGraphModel dx="880" dy="395" grid="1" gridSize="10" guides="1" tooltips="1" connect="1" arrows="1" fold="1" page="1" pageScale="1" pageWidth="827" pageHeight="1169" math="0" shadow="0">
      <root>
        <mxCell id="0" />
        <mxCell id="1" parent="0" />
        <mxCell id="j1PRczgxi-njslKgbRPB-1" value="" style="rounded=0;whiteSpace=wrap;html=1;" parent="1" vertex="1">
          <mxGeometry x="260" y="170" width="640" height="550" as="geometry" />
        </mxCell>
        <mxCell id="j1PRczgxi-njslKgbRPB-2" value="" style="rounded=0;whiteSpace=wrap;html=1;" parent="1" vertex="1">
          <mxGeometry x="350" y="180" width="540" height="530" as="geometry" />
        </mxCell>
        <mxCell id="j1PRczgxi-njslKgbRPB-16" style="rounded=0;orthogonalLoop=1;jettySize=auto;html=1;exitX=1;exitY=0.3333333333333333;exitDx=0;exitDy=0;exitPerimeter=0;entryX=0;entryY=0.5;entryDx=0;entryDy=0;" parent="1" source="j1PRczgxi-njslKgbRPB-4" target="j1PRczgxi-njslKgbRPB-7" edge="1">
          <mxGeometry relative="1" as="geometry" />
        </mxCell>
        <mxCell id="j1PRczgxi-njslKgbRPB-4" value="Réceptioniste" style="shape=umlActor;verticalLabelPosition=bottom;verticalAlign=top;html=1;outlineConnect=0;" parent="1" vertex="1">
          <mxGeometry x="290" y="340" width="30" height="60" as="geometry" />
        </mxCell>
        <mxCell id="j1PRczgxi-njslKgbRPB-14" style="rounded=0;orthogonalLoop=1;jettySize=auto;html=1;exitX=1;exitY=0;exitDx=0;exitDy=0;entryX=0;entryY=1;entryDx=0;entryDy=0;dashed=1;endArrow=open;endFill=0;" parent="1" source="j1PRczgxi-njslKgbRPB-7" target="j1PRczgxi-njslKgbRPB-9" edge="1">
          <mxGeometry relative="1" as="geometry" />
        </mxCell>
        <mxCell id="j1PRczgxi-njslKgbRPB-25" value="&amp;lt;&amp;lt;include&amp;gt;&amp;gt;" style="edgeLabel;html=1;align=center;verticalAlign=middle;resizable=0;points=[];" parent="j1PRczgxi-njslKgbRPB-14" vertex="1" connectable="0">
          <mxGeometry x="0.4248" y="-1" relative="1" as="geometry">
            <mxPoint as="offset" />
          </mxGeometry>
        </mxCell>
        <mxCell id="j1PRczgxi-njslKgbRPB-7" value="Gérer les services" style="ellipse;whiteSpace=wrap;html=1;" parent="1" vertex="1">
          <mxGeometry x="390" y="330" width="120" height="80" as="geometry" />
        </mxCell>
        <mxCell id="j1PRczgxi-njslKgbRPB-15" style="rounded=0;orthogonalLoop=1;jettySize=auto;html=1;exitX=0;exitY=0.5;exitDx=0;exitDy=0;entryX=1;entryY=0.5;entryDx=0;entryDy=0;endArrow=block;endFill=0;" parent="1" source="j1PRczgxi-njslKgbRPB-8" target="j1PRczgxi-njslKgbRPB-7" edge="1">
          <mxGeometry relative="1" as="geometry" />
        </mxCell>
        <mxCell id="j1PRczgxi-njslKgbRPB-8" value="Consulter service" style="ellipse;whiteSpace=wrap;html=1;" parent="1" vertex="1">
          <mxGeometry x="560" y="330" width="120" height="80" as="geometry" />
        </mxCell>
        <mxCell id="j1PRczgxi-njslKgbRPB-9" value="S&#39;authentifier" style="ellipse;whiteSpace=wrap;html=1;" parent="1" vertex="1">
          <mxGeometry x="570" y="190" width="120" height="80" as="geometry" />
        </mxCell>
        <mxCell id="j1PRczgxi-njslKgbRPB-19" style="rounded=0;orthogonalLoop=1;jettySize=auto;html=1;exitX=0;exitY=0;exitDx=0;exitDy=0;entryX=1;entryY=1;entryDx=0;entryDy=0;dashed=1;endArrow=open;endFill=0;" parent="1" source="j1PRczgxi-njslKgbRPB-10" target="j1PRczgxi-njslKgbRPB-8" edge="1">
          <mxGeometry relative="1" as="geometry" />
        </mxCell>
        <mxCell id="j1PRczgxi-njslKgbRPB-23" value="&amp;lt;&amp;lt;extends&amp;gt;&amp;gt;" style="edgeLabel;html=1;align=center;verticalAlign=middle;resizable=0;points=[];" parent="j1PRczgxi-njslKgbRPB-19" vertex="1" connectable="0">
          <mxGeometry x="-0.283" y="2" relative="1" as="geometry">
            <mxPoint as="offset" />
          </mxGeometry>
        </mxCell>
        <mxCell id="j1PRczgxi-njslKgbRPB-10" value="Suivre l&#39;historique de chaque service" style="ellipse;whiteSpace=wrap;html=1;" parent="1" vertex="1">
          <mxGeometry x="690" y="490" width="120" height="80" as="geometry" />
        </mxCell>
        <mxCell id="j1PRczgxi-njslKgbRPB-20" style="rounded=0;orthogonalLoop=1;jettySize=auto;html=1;exitX=0;exitY=0.5;exitDx=0;exitDy=0;dashed=1;endArrow=open;endFill=0;entryX=0.975;entryY=0.6;entryDx=0;entryDy=0;entryPerimeter=0;" parent="1" source="j1PRczgxi-njslKgbRPB-11" target="j1PRczgxi-njslKgbRPB-8" edge="1">
          <mxGeometry relative="1" as="geometry" />
        </mxCell>
        <mxCell id="j1PRczgxi-njslKgbRPB-24" value="&amp;lt;&amp;lt;extends&amp;gt;&amp;gt;" style="edgeLabel;html=1;align=center;verticalAlign=middle;resizable=0;points=[];" parent="j1PRczgxi-njslKgbRPB-20" vertex="1" connectable="0">
          <mxGeometry x="-0.3011" relative="1" as="geometry">
            <mxPoint as="offset" />
          </mxGeometry>
        </mxCell>
        <mxCell id="j1PRczgxi-njslKgbRPB-11" value="Ajouter responsable service" style="ellipse;whiteSpace=wrap;html=1;" parent="1" vertex="1">
          <mxGeometry x="760" y="410" width="120" height="80" as="geometry" />
        </mxCell>
        <mxCell id="j1PRczgxi-njslKgbRPB-18" style="rounded=0;orthogonalLoop=1;jettySize=auto;html=1;exitX=0.5;exitY=0;exitDx=0;exitDy=0;dashed=1;endArrow=open;endFill=0;" parent="1" source="j1PRczgxi-njslKgbRPB-12" target="j1PRczgxi-njslKgbRPB-8" edge="1">
          <mxGeometry relative="1" as="geometry" />
        </mxCell>
        <mxCell id="j1PRczgxi-njslKgbRPB-22" value="&amp;lt;&amp;lt;extends&amp;gt;&amp;gt;" style="edgeLabel;html=1;align=center;verticalAlign=middle;resizable=0;points=[];" parent="j1PRczgxi-njslKgbRPB-18" vertex="1" connectable="0">
          <mxGeometry x="-0.1602" y="-1" relative="1" as="geometry">
            <mxPoint y="-1" as="offset" />
          </mxGeometry>
        </mxCell>
        <mxCell id="j1PRczgxi-njslKgbRPB-12" value="Supprimer Service" style="ellipse;whiteSpace=wrap;html=1;" parent="1" vertex="1">
          <mxGeometry x="587" y="570" width="120" height="80" as="geometry" />
        </mxCell>
        <mxCell id="j1PRczgxi-njslKgbRPB-17" style="rounded=0;orthogonalLoop=1;jettySize=auto;html=1;exitX=1;exitY=0.5;exitDx=0;exitDy=0;entryX=0;entryY=1;entryDx=0;entryDy=0;dashed=1;endArrow=open;endFill=0;" parent="1" source="j1PRczgxi-njslKgbRPB-13" target="j1PRczgxi-njslKgbRPB-8" edge="1">
          <mxGeometry relative="1" as="geometry" />
        </mxCell>
        <mxCell id="j1PRczgxi-njslKgbRPB-21" value="&amp;lt;&amp;lt;extends&amp;gt;&amp;gt;" style="edgeLabel;html=1;align=center;verticalAlign=middle;resizable=0;points=[];" parent="j1PRczgxi-njslKgbRPB-17" vertex="1" connectable="0">
          <mxGeometry x="-0.4294" y="-5" relative="1" as="geometry">
            <mxPoint as="offset" />
          </mxGeometry>
        </mxCell>
        <mxCell id="j1PRczgxi-njslKgbRPB-13" value="Modifier Service" style="ellipse;whiteSpace=wrap;html=1;" parent="1" vertex="1">
          <mxGeometry x="450" y="560" width="120" height="80" as="geometry" />
        </mxCell>
        <mxCell id="RHM3MK4iD3EZMPebFZqb-2" style="edgeStyle=orthogonalEdgeStyle;rounded=0;orthogonalLoop=1;jettySize=auto;html=1;exitX=0.5;exitY=0;exitDx=0;exitDy=0;entryX=0.5;entryY=1;entryDx=0;entryDy=0;endArrow=block;endFill=0;" edge="1" parent="1" source="RHM3MK4iD3EZMPebFZqb-1" target="j1PRczgxi-njslKgbRPB-7">
          <mxGeometry relative="1" as="geometry" />
        </mxCell>
        <mxCell id="RHM3MK4iD3EZMPebFZqb-1" value="Ajouter Service" style="ellipse;whiteSpace=wrap;html=1;" vertex="1" parent="1">
          <mxGeometry x="390" y="460" width="120" height="80" as="geometry" />
        </mxCell>
      </root>
    </mxGraphModel>
  </diagram>
</mxfile>
